<svg width="16" height="16" viewBox="0 0 16 16" fill="none" xmlns="http://www.w3.org/2000/svg">
<path d="M10 8.66663H11V10.5466L12.6267 11.4866L12.1267 12.3533L10 11.1266V8.66663ZM12.6667 5.33329H3.33333V12.6666H6.44667C6.16 12.06 6 11.38 6 10.6666C6 9.42895 6.49167 8.24196 7.36684 7.36679C8.242 6.49162 9.42899 5.99996 10.6667 5.99996C11.38 5.99996 12.06 6.15996 12.6667 6.44663V5.33329ZM3.33333 14C2.97971 14 2.64057 13.8595 2.39052 13.6094C2.14048 13.3594 2 13.0202 2 12.6666V3.33329C2 2.59329 2.59333 1.99996 3.33333 1.99996H4V0.666626H5.33333V1.99996H10.6667V0.666626H12V1.99996H12.6667C13.0203 1.99996 13.3594 2.14043 13.6095 2.39048C13.8595 2.64053 14 2.97967 14 3.33329V7.39996C14.8267 8.23996 15.3333 9.39329 15.3333 10.6666C15.3333 11.9043 14.8417 13.0913 13.9665 13.9665C13.0913 14.8416 11.9043 15.3333 10.6667 15.3333C9.39333 15.3333 8.24 14.8266 7.4 14H3.33333ZM10.6667 7.43329C9.80913 7.43329 8.98672 7.77395 8.38035 8.38031C7.77399 8.98668 7.43333 9.80909 7.43333 10.6666C7.43333 12.4533 8.88 13.9 10.6667 13.9C11.0913 13.9 11.5117 13.8163 11.904 13.6538C12.2963 13.4913 12.6527 13.2532 12.953 12.9529C13.2532 12.6527 13.4914 12.2963 13.6539 11.904C13.8164 11.5117 13.9 11.0912 13.9 10.6666C13.9 8.87996 12.4533 7.43329 10.6667 7.43329Z" fill="#747D7D"/>
</svg>
