<svg width="24" height="24" viewBox="0 0 24 24" fill="none" xmlns="http://www.w3.org/2000/svg">
<path d="M12.0001 20.3999C7.36956 20.3999 3.60006 16.6304 3.60006 11.9999C3.60006 7.36944 7.36956 3.59994 12.0001 3.59994C16.6306 3.59994 20.4001 7.36944 20.4001 11.9999C20.4001 16.6304 16.6306 20.3999 12.0001 20.3999ZM12.0001 1.49994C6.19356 1.49994 1.50006 6.19344 1.50006 11.9999C1.50006 17.8064 6.19356 22.4999 12.0001 22.4999C17.8066 22.4999 22.5001 17.8064 22.5001 11.9999C22.5001 6.19344 17.8066 1.49994 12.0001 1.49994ZM14.7196 7.79994L12.0001 10.5194L9.28056 7.79994L7.80006 9.28044L10.5196 11.9999L7.80006 14.7194L9.28056 16.1999L12.0001 13.4804L14.7196 16.1999L16.2001 14.7194L13.4806 11.9999L16.2001 9.28044L14.7196 7.79994Z" fill="#D8D8D8"/>
</svg>
