<svg width="128" height="128" viewBox="0 0 128 128" fill="none" xmlns="http://www.w3.org/2000/svg">
<rect width="128" height="128" fill="white"/>
<path d="M64.5006 18.4857C65.4494 18.4946 66.3799 18.7491 67.2018 19.2245L67.2022 19.2233L101.233 38.8504C102.948 39.8388 104.005 41.6706 104.005 43.6528V60.4799C104.004 60.7231 104.068 60.9622 104.189 61.1729C104.311 61.3836 104.485 61.5587 104.695 61.6804C104.905 61.8021 105.144 61.8662 105.386 61.8662C105.629 61.8663 105.868 61.8023 106.078 61.6806L113.309 57.4969C113.737 57.2492 114 56.7915 114 56.2962V37.6349C113.999 36.7381 113.757 35.8582 113.298 35.0884L113.3 35.0873C113.293 35.0799 113.288 35.0718 113.281 35.0659C113.001 34.6041 112.648 34.1916 112.234 33.845C112.218 33.8307 112.204 33.8167 112.191 33.8028C112.171 33.7828 112.151 33.7631 112.127 33.7435C112.112 33.733 112.097 33.7218 112.082 33.7101L111.988 33.64C110.958 32.8537 109.132 31.8876 107.803 31.184C107.669 31.1132 107.54 31.045 107.418 30.9799L106.918 30.6938C106.903 30.6812 106.888 30.6685 106.873 30.6558C106.814 30.605 106.755 30.5545 106.682 30.5105L67.3275 7.73921C66.4686 7.24298 65.4922 6.98779 64.501 7.00045C63.5092 6.9881 62.5325 7.24327 61.6729 7.73921L19.0222 32.419C18.7658 32.5678 18.5029 32.7134 18.2525 32.8521C17.8328 33.0846 17.4483 33.2976 17.1884 33.4729C16.0894 34.2783 15.5557 35.2574 15.5023 35.4559C15.1121 36.2233 15 37.1295 15 38.019V88.9806C15.0002 89.9532 15.2559 90.9087 15.7412 91.7509C16.2266 92.5931 16.9246 93.2925 17.765 93.7787L61.7978 119.259C62.5907 119.719 63.4857 119.972 64.4012 119.996V120L64.4298 119.999L64.4445 120V119.999C65.4396 120.013 66.4201 119.758 67.2826 119.26L105.787 96.9791C105.906 96.9104 106.134 96.7905 106.44 96.6299C107.674 95.9817 110.17 94.6712 111.807 93.3965C111.827 93.3799 111.848 93.3659 111.866 93.35C112.671 92.7186 113.239 92.1004 113.345 91.576C113.772 90.7776 113.997 89.8864 114 88.9806V67.7349C114 67.4916 113.936 67.2525 113.815 67.0417C113.694 66.8309 113.519 66.6558 113.309 66.5341C113.099 66.4124 112.86 66.3483 112.617 66.3483C112.375 66.3483 112.136 66.4124 111.926 66.5341L104.696 70.7182C104.268 70.9655 104.005 71.4237 104.005 71.919V83.3252C104.005 84.2978 103.749 85.2533 103.264 86.0955C102.779 86.9378 102.081 87.6371 101.24 88.1233L67.2826 107.774C66.4485 108.256 65.5032 108.512 64.5404 108.515C63.5773 108.512 62.6319 108.256 61.7978 107.773L27.6894 88.0357C25.9781 87.0461 24.9243 85.2167 24.9243 83.2368V43.7609C24.9245 42.7881 25.1802 41.8325 25.6655 40.9901C26.1509 40.1477 26.8489 39.4481 27.6894 38.9617L61.7978 19.2245C62.6204 18.7493 63.5512 18.4946 64.5006 18.4857Z" fill="#010101"/>
<path fill-rule="evenodd" clip-rule="evenodd" d="M76.7294 42.5309C76.7294 47.6548 73.5794 52.0429 69.1107 53.8636L69.1107 86.0156C69.1107 86.0156 81.4152 78.3828 82.9521 76.8565C84.489 75.3302 84.489 72.2771 84.489 72.2771H79.8783C79.8783 72.2771 88.3312 63.1182 89.8681 63.1182C91.405 63.1182 90.6366 78.383 89.0997 79.9095C87.5628 81.436 66.0369 96.701 64.5 96.701C62.9631 96.701 41.4372 81.436 39.9003 79.9095C38.3634 78.383 37.595 63.1181 39.1319 63.1182C40.6688 63.1183 49.1217 72.2771 49.1217 72.2771H44.511C44.511 72.2771 44.511 75.3298 46.0479 76.8565C47.5848 78.3831 59.8893 86.0156 59.8893 86.0156V53.8637C55.4205 52.043 52.2706 47.6549 52.2706 42.5309C52.2706 35.7753 57.7459 30.2989 64.5 30.2989C71.2541 30.2989 76.7294 35.7753 76.7294 42.5309ZM64.5 47.1179C67.0328 47.1179 69.086 45.0642 69.086 42.5309C69.086 39.9976 67.0328 37.9439 64.5 37.9439C61.9672 37.9439 59.914 39.9976 59.914 42.5309C59.914 45.0642 61.9672 47.1179 64.5 47.1179Z" fill="#010101"/>
</svg>
