<svg width="128" height="128" viewBox="0 0 128 128" fill="none" xmlns="http://www.w3.org/2000/svg">
<path d="M64.3192 14.6038C65.3605 14.6136 66.3815 14.8928 67.2834 15.4145L67.2838 15.4132L104.628 36.9509C106.509 38.0355 107.669 40.0456 107.669 42.2207V60.6859C107.668 60.9528 107.738 61.2151 107.871 61.4464C108.004 61.6776 108.196 61.8697 108.426 62.0032C108.657 62.1368 108.919 62.2071 109.185 62.2072C109.451 62.2073 109.713 62.137 109.944 62.0035L117.879 57.4126C118.349 57.1408 118.637 56.6385 118.637 56.0949V35.6171C118.637 34.633 118.37 33.6674 117.867 32.8227L117.869 32.8214C117.861 32.8133 117.855 32.8044 117.848 32.798C117.541 32.2913 117.153 31.8386 116.7 31.4582C116.682 31.4425 116.667 31.4271 116.652 31.4119C116.63 31.39 116.608 31.3684 116.582 31.3468C116.565 31.3353 116.548 31.323 116.533 31.3102L116.429 31.2332C115.299 30.3704 113.296 29.3102 111.837 28.5382C111.69 28.4605 111.549 28.3856 111.414 28.3142L110.866 28.0003C110.849 27.9865 110.833 27.9725 110.817 27.9586C110.752 27.9029 110.687 27.8475 110.607 27.7992L67.4213 2.81117C66.4788 2.26664 65.4074 1.9866 64.3197 2.00049C63.2314 1.98695 62.1595 2.26695 61.2163 2.81117L14.4138 29.8935C14.1323 30.0567 13.8438 30.2165 13.5691 30.3687C13.1086 30.6239 12.6867 30.8576 12.4015 31.0499C11.1954 31.9338 10.6098 33.0081 10.5512 33.2259C10.1231 34.0681 10 35.0625 10 36.0386V91.961C10.0003 93.0283 10.2808 94.0768 10.8134 95.001C11.346 95.9252 12.1119 96.6926 13.0342 97.2262L61.3534 125.187C62.2234 125.691 63.2055 125.969 64.2102 125.996V126L64.2416 125.999L64.2577 126V125.999C65.3497 126.014 66.4256 125.734 67.3721 125.188L109.625 100.738C109.755 100.663 110.006 100.531 110.341 100.355C111.696 99.6436 114.434 98.2056 116.231 96.8068C116.252 96.7885 116.276 96.7732 116.296 96.7558C117.179 96.0629 117.802 95.3845 117.919 94.809C118.387 93.9329 118.634 92.955 118.637 91.961V68.6472C118.637 68.3802 118.567 68.1178 118.434 67.8865C118.301 67.6552 118.109 67.4631 117.879 67.3295C117.648 67.1959 117.386 67.1256 117.12 67.1256C116.854 67.1256 116.592 67.1959 116.361 67.3295L108.427 71.9209C107.958 72.1923 107.669 72.695 107.669 73.2386V85.7551C107.669 86.8224 107.389 87.8709 106.856 88.7951C106.324 89.7193 105.558 90.4868 104.635 91.0202L67.3721 112.584C66.4568 113.113 65.4195 113.393 64.3629 113.397C63.3061 113.393 62.2686 113.113 61.3534 112.583L23.9246 90.9241C22.0468 89.8382 20.8904 87.8307 20.8904 85.6581V42.3394C20.8907 41.2719 21.1712 40.2233 21.7038 39.2989C22.2364 38.3745 23.0023 37.6068 23.9246 37.073L61.3534 15.4145C62.256 14.893 63.2774 14.6136 64.3192 14.6038Z" fill="white"/>
<path fill-rule="evenodd" clip-rule="evenodd" d="M77.7384 40.9896C77.7384 46.6124 74.2819 51.4277 69.3782 53.4256L69.3781 88.7073C69.3781 88.7073 82.8804 80.3316 84.5669 78.6567C86.2534 76.9818 86.2534 73.6315 86.2534 73.6315H81.1939C81.1939 73.6315 90.4697 63.5811 92.1562 63.5811C93.8427 63.5811 92.9995 80.3318 91.3129 82.0069C89.6264 83.682 66.0051 100.433 64.3186 100.433C62.6321 100.433 39.0108 83.682 37.3243 82.0069C35.6377 80.3318 34.7945 63.581 36.481 63.5811C38.1675 63.5812 47.4433 73.6315 47.4433 73.6315H42.3838C42.3838 73.6315 42.3838 76.9814 44.0703 78.6567C45.7568 80.3319 59.259 88.7073 59.259 88.7073V53.4256C54.3553 51.4277 50.8987 46.6124 50.8987 40.9896C50.8987 33.5765 56.907 27.567 64.3186 27.567C71.7302 27.567 77.7384 33.5765 77.7384 40.9896ZM64.3186 46.0231C67.0979 46.0231 69.351 43.7696 69.351 40.9896C69.351 38.2097 67.0979 35.9561 64.3186 35.9561C61.5392 35.9561 59.2861 38.2097 59.2861 40.9896C59.2861 43.7696 61.5392 46.0231 64.3186 46.0231Z" fill="white"/>
</svg>
