<svg width="25" height="24" viewBox="0 0 25 24" fill="none" xmlns="http://www.w3.org/2000/svg">
<path d="M21.6959 19.7062L15.8527 13.863C16.7594 12.6907 17.2499 11.2575 17.2499 9.74997C17.2499 7.94548 16.5457 6.25349 15.2722 4.97774C13.9987 3.702 12.3022 3 10.5 3C8.69773 3 7.00124 3.70425 5.72774 4.97774C4.452 6.25124 3.75 7.94548 3.75 9.74997C3.75 11.5522 4.45425 13.2487 5.72774 14.5222C7.00124 15.7979 8.69548 16.4999 10.5 16.4999C12.0075 16.4999 13.4385 16.0094 14.6107 15.1049L20.4539 20.9459C20.4711 20.9631 20.4914 20.9767 20.5138 20.9859C20.5362 20.9952 20.5602 21 20.5844 21C20.6087 21 20.6327 20.9952 20.6551 20.9859C20.6774 20.9767 20.6978 20.9631 20.7149 20.9459L21.6959 19.9672C21.7131 19.95 21.7267 19.9297 21.7359 19.9073C21.7452 19.8849 21.75 19.8609 21.75 19.8367C21.75 19.8124 21.7452 19.7884 21.7359 19.766C21.7267 19.7437 21.7131 19.7233 21.6959 19.7062ZM14.064 13.314C13.11 14.2657 11.8455 14.7899 10.5 14.7899C9.15448 14.7899 7.88998 14.2657 6.93599 13.314C5.98424 12.36 5.45999 11.0955 5.45999 9.74997C5.45999 8.40448 5.98424 7.13773 6.93599 6.18599C7.88998 5.23424 9.15448 4.70999 10.5 4.70999C11.8455 4.70999 13.1122 5.23199 14.064 6.18599C15.0157 7.13998 15.5399 8.40448 15.5399 9.74997C15.5399 11.0955 15.0157 12.3622 14.064 13.314Z" fill="#747D7D"/>
</svg>
