<svg width="128" height="124" viewBox="0 0 128 124" fill="none" xmlns="http://www.w3.org/2000/svg">
<rect width="128" height="124" fill="white"/>
<path d="M11.3677 11.0481H116.293V112.696H11.3677V11.0481Z" fill="#002856"/>
<path d="M38.7264 59.6428L41.0028 56.8026C47.2805 56.5328 52.4412 52.2584 57.5171 46.777L59.1713 48.8361C60.3792 45.4261 60.931 41.8166 60.7973 38.1998C59.0299 40.1169 57.2767 42.318 54.8448 42.7298L55.9477 43.9653C50.9849 46.706 45.7111 50.0005 40.3948 49.8727V27.1517H50.5466V24.3542H40.0555V23.2039C43.265 23.0477 44.1982 15.635 38.7971 15.6776H38.3871C33.9333 15.6208 33.9333 23.0903 37.2842 23.2039V24.3542H27.387L27.698 27.0665H36.8883V49.7875C31.6145 49.9153 26.369 46.6208 21.3355 43.88L22.4525 42.6446C20.0206 42.2328 18.2108 40.0317 16.5 38.1146C16.3771 41.71 16.9386 45.2959 18.1542 48.6799L19.8085 46.6208C24.8702 52.1022 30.1441 56.2062 36.4076 56.476L38.7264 59.6428Z" fill="#EBA900"/>
<path d="M40.6212 19.5828C40.6212 19.931 40.5184 20.2715 40.3257 20.5611C40.1331 20.8506 39.8593 21.0763 39.5389 21.2096C39.2185 21.3429 38.866 21.3778 38.5259 21.3098C38.1858 21.2419 37.8735 21.0742 37.6283 20.8279C37.3831 20.5816 37.2161 20.2679 37.1484 19.9263C37.0808 19.5847 37.1155 19.2307 37.2482 18.9089C37.3809 18.5872 37.6056 18.3121 37.8939 18.1187C38.1823 17.9252 38.5212 17.8219 38.868 17.8219C39.333 17.8219 39.7789 18.0074 40.1077 18.3376C40.4365 18.6679 40.6212 19.1158 40.6212 19.5828Z" fill="#002856"/>
<path d="M88.6933 59.6427L90.9132 56.8026C97.1909 56.5328 102.352 52.2584 107.427 46.777L109.082 48.8361C110.283 45.4485 110.845 41.8653 110.736 38.2708C108.969 40.1879 107.201 42.389 104.783 42.8008L105.886 44.0362C100.924 46.777 95.6356 50.0715 90.3335 49.9437V27.2227H100.485V24.3541H90.0224V23.2039C93.3168 23.0477 94.2217 15.6208 88.8206 15.6208H88.4106C83.9144 15.493 83.8719 22.9909 87.2512 23.1045V24.2547H77.3539L77.7639 27.0665H86.9542V49.7875C81.5956 50.0005 76.35 46.706 71.3872 44.022L72.5042 42.7866C70.0723 42.3748 68.2625 40.1737 66.5517 38.2566C66.4289 41.852 66.9903 45.4379 68.206 48.8219L69.8602 46.7628C74.922 52.2442 80.1958 56.3482 86.4594 56.618L88.6933 59.6427Z" fill="#EBA900"/>
<path d="M90.588 19.5828C90.588 19.931 90.4852 20.2715 90.2925 20.5611C90.0999 20.8506 89.8261 21.0763 89.5057 21.2096C89.1853 21.3429 88.8328 21.3778 88.4927 21.3098C88.1526 21.2419 87.8402 21.0742 87.595 20.8279C87.3499 20.5816 87.1829 20.2679 87.1152 19.9263C87.0476 19.5847 87.0823 19.2307 87.215 18.9089C87.3477 18.5872 87.5724 18.3121 87.8607 18.1187C88.149 17.9252 88.488 17.8219 88.8348 17.8219C89.2998 17.8219 89.7457 18.0074 90.0745 18.3376C90.4033 18.6679 90.588 19.1158 90.588 19.5828Z" fill="#002856"/>
<path d="M38.7266 107.158L41.0029 104.204C47.2806 103.949 52.4414 99.6602 57.5173 94.1787L59.1715 96.2378C60.3719 92.8505 60.9235 89.2658 60.7975 85.6725C59.0301 87.5896 57.2769 89.7907 54.845 90.2026L55.9478 91.438C50.9851 94.1787 45.7112 97.4733 40.395 97.3455V74.6244H50.5467V71.8269H40.0556V70.6767C43.2652 70.5347 44.1984 63.1077 38.7973 63.1503H38.3872C33.8911 63.0367 33.8486 70.5205 37.2278 70.6341V71.7843H27.3306L27.6416 74.4966H36.832V97.2177C31.5581 97.3455 26.3126 94.0509 21.2791 91.3102L22.3961 90.0747C19.9642 89.6629 18.1544 87.4618 16.4436 85.5447C16.3197 89.1402 16.8812 92.7263 18.0978 96.11L19.7521 94.0509C24.8138 99.5324 30.0877 103.636 36.3512 103.906L38.7266 107.158Z" fill="#EBA900"/>
<path d="M40.621 67.0555C40.6266 67.4049 40.5286 67.7481 40.3394 68.0414C40.1502 68.3347 39.8783 68.5648 39.5585 68.7024C39.2387 68.8401 38.8853 68.879 38.5434 68.8143C38.2014 68.7496 37.8864 68.5842 37.6384 68.3391C37.3903 68.094 37.2205 67.7803 37.1506 67.438C37.0806 67.0957 37.1136 66.7402 37.2454 66.4167C37.3773 66.0933 37.6019 65.8166 37.8908 65.6218C38.1797 65.4271 38.5198 65.323 38.8677 65.323C39.3268 65.3266 39.7664 65.5093 40.0936 65.8327C40.4209 66.156 40.61 66.5946 40.621 67.0555Z" fill="#002856"/>
<path d="M88.6937 107.158L90.9135 104.219C97.1912 103.949 102.352 99.6602 107.428 94.1787L109.082 96.2378C110.285 92.8506 110.846 89.2671 110.736 85.6725C108.969 87.5896 107.202 89.7907 104.784 90.2025L105.887 91.438C100.924 94.1787 95.6359 97.4733 90.3338 97.3455V74.6244H100.486V71.8269H90.0228V70.6767C93.2323 70.5347 94.1655 63.1077 88.7644 63.1503H88.3544C83.8582 63.0367 83.8158 70.5347 87.195 70.6341V71.7843H77.2977L77.7643 74.5392H86.9546V97.2603C81.6808 97.3881 76.4352 94.0935 71.4725 91.3528L72.5894 90.1173C70.1575 89.7055 68.3477 87.5044 66.6369 85.5873C66.513 89.1828 67.0745 92.7689 68.2912 96.1526L69.9455 94.0935C75.0072 99.575 80.281 103.679 86.5446 103.949L88.6937 107.158Z" fill="#EBA900"/>
<path d="M90.5888 67.0555C90.5944 67.4049 90.4963 67.7481 90.3071 68.0414C90.1179 68.3347 89.8461 68.5648 89.5263 68.7024C89.2065 68.8401 88.8531 68.879 88.5112 68.8143C88.1692 68.7496 87.8542 68.5842 87.6062 68.3391C87.3581 68.094 87.1883 67.7803 87.1183 67.438C87.0484 67.0957 87.0814 66.7402 87.2132 66.4167C87.345 66.0933 87.5697 65.8166 87.8586 65.6218C88.1475 65.4271 88.4876 65.323 88.8355 65.323C89.2946 65.3266 89.7342 65.5093 90.0614 65.8327C90.3886 66.156 90.5778 66.5946 90.5888 67.0555Z" fill="#002856"/>
<path d="M128 0V124H0V0H128ZM123.999 4.01878H4.00133V119.981H123.999V4.01878Z" fill="#EBA900"/>
</svg>
